<svg xmlns="http://www.w3.org/2000/svg" width="152.475" height="100.077" viewBox="0 0 152.475 100.077"><defs><style>.a{fill:#fbcb51;}.b{fill:#494140;}</style></defs><path class="a" d="M172.5,219.391c-18.144-3.29-31.533-17.664-30.281-37.16,1.1-17.164,22.941-24.566,41.34-24.175,20.1.427,28.513,19.473,27.377,36.633C209.781,212.087,190.535,224.646,172.5,219.391Z" transform="translate(-142.135 -158.042)"/><path class="b" d="M227.891,211.116a16.154,16.154,0,0,1-1.439-3.846,22.311,22.311,0,0,1-.54-4.416,3.566,3.566,0,0,0,.568,1.706l.168.186-.067-.242a18.539,18.539,0,0,1-.355-5.5,19.3,19.3,0,0,0-.329-5.461c-.868-3.353-2.863-3.96-3.087-4.018l-.009,0a7.82,7.82,0,0,0-2.242-1.011,8.345,8.345,0,0,0-4.537-.095c-.269.062-.654.171-1.1.3-2.09.594-5.588,1.587-7.055.714q-.124-.074-.245-.141a10.087,10.087,0,0,0-1.058-.508,13.618,13.618,0,0,0-2.47-.719l-.212-.044c-.191-.04-.365-.076-.519-.113a2.5,2.5,0,0,1-.3-.094l0,0-.1-.038a.881.881,0,0,1-.5-.54.755.755,0,0,0-.587-.467c-.18-.034-.257-.145-.4-.346a4.485,4.485,0,0,0-.326-.424,4.933,4.933,0,0,0-.961-.776,3.125,3.125,0,0,1-.276-.2L199.9,185a3.886,3.886,0,0,0-1.495-.949,2.6,2.6,0,0,1-1.117-.727c-.094-.086-.175-.161-.238-.21a2.194,2.194,0,0,0-1.064-.472.739.739,0,0,1-.269-.147,3.8,3.8,0,0,0-2.523-.674,3.734,3.734,0,0,0-.406-.378,1.352,1.352,0,0,1-.49-.89l-.021-.233-.093.214a2.517,2.517,0,0,0-.1,1.355l-.065.013c-.035-.03-.068-.06-.107-.091a1.354,1.354,0,0,1-.49-.89l-.021-.232-.093.214a2.481,2.481,0,0,0-.108,1.322,1.475,1.475,0,0,0-.5.51l-.116.2.2-.124c.063-.039.146-.089.228-.136a2.216,2.216,0,0,0-.367.624l-.015.045.077-.034,0,.006c-.138.177-.267.353-.382.514-.053.074-.1.146-.152.214l-.1.149c-.121.173-.225.322-.3.414a5.717,5.717,0,0,0-.4.625,10.629,10.629,0,0,1-1.193,1.694,9.8,9.8,0,0,0-1,1.353,2.135,2.135,0,0,0-.339.832.725.725,0,0,0,.072.346,1.719,1.719,0,0,1,.114.384l.005.035c0,.03.009.062.013.1a.623.623,0,0,0,.137.322l.019.022h0a.755.755,0,0,0,.285.192,1.231,1.231,0,0,0,.292.077.125.125,0,0,0,0,.047.085.085,0,0,0,.01.021l.013.019c.065.074.221.07.6.054.124-.005.267-.011.426-.014.512-.01.561-.282.6-.48a.347.347,0,0,1,.1-.233c.221-.16,1.71-.783,1.84-.837l.246-.02a3.135,3.135,0,0,0,1.747-.55.913.913,0,0,0,.161-.194,1.672,1.672,0,0,0,.1-.166,1.154,1.154,0,0,1,.679.075,1.935,1.935,0,0,1,.448.233c.031.021.063.044.094.068a6.528,6.528,0,0,1,1.217,2.088,21.627,21.627,0,0,0,.972,1.941,3.243,3.243,0,0,1,.66,1.915c0,.034,0,.068-.006.1l.059,0h0l-.059.012c0,.068-.011.139-.018.213l0,.048c0,.017,0,.034,0,.05-.013.142-.026.3-.035.482a3.821,3.821,0,0,0,.154,1.276l0,.011a2.74,2.74,0,0,0,.222.542c.375,1.331.789,1.946,1.574,2.333l.005.021v0h0l.026.1a2.8,2.8,0,0,1,.079.407,10.7,10.7,0,0,0,.761,2.725,15.021,15.021,0,0,1,.616,3.446l0,.015a6.8,6.8,0,0,0,.32,1.51,12.9,12.9,0,0,1,.135,2.545c0,.15,0,.262,0,.316a.271.271,0,0,1-.1.239.477.477,0,0,0-.156.282.331.331,0,0,0,.025.247.837.837,0,0,1,.059.452c-.015.482-.671.912-.835,1.012h0c-.029,0-.053.01-.088.051l-.042.023.017.009-.022.03-.032.047c-.159.234-.436.705-.565.926l-.018.03c-.08.137-.148.256-.2.339l-.1.183.082.015a6.608,6.608,0,0,0,1.118.1,2.566,2.566,0,0,0,1.179-.225l.044-.024-.016-.047c0-.009-.317-.94.059-1.3a.046.046,0,0,0,.008-.011l.049-.021.036-.017,0-.04c-.013-.254.484-.684.9-.871.467-.208.348-.9.17-1.559a11.579,11.579,0,0,1-.23-3.536l.039-.115a1.338,1.338,0,0,0,.016-1.211,4.635,4.635,0,0,1,.053-1.591c.019-.162.039-.33.057-.5.231.783.428,1.671.529,2.152l0,.015c.019.092.074.34.178.67a6.351,6.351,0,0,0,.318.829,13.281,13.281,0,0,1,.431,2.531c.016.149.028.26.036.314a.235.235,0,0,1-.073.233.418.418,0,0,0-.126.284.344.344,0,0,0,.053.243.9.9,0,0,1,.112.45c.045.52-.679.979-.741,1.017a.078.078,0,0,0-.013.008l-.085.051.027.014c-.008.013-.016.025-.025.04l-.027.047c-.132.232-.351.695-.455.916l-.017.034c-.063.136-.118.255-.156.337L202.9,214l.075.014a6.82,6.82,0,0,0,1.129.1h.125l.061,0,.114-.006.046,0,.089-.008.054-.006.1-.015.067-.011.032-.006a1.525,1.525,0,0,0,.469-.164l.047-.027-.023-.049c0-.009-.428-.936-.092-1.29a.078.078,0,0,0,.017-.029l.031-.014.04-.019-.008-.044c-.042-.25.4-.674.8-.858.448-.209.248-.9-.006-1.555a12.246,12.246,0,0,1-.642-3.513l.025-.114a1.34,1.34,0,0,0-.121-1.2l-.007-.013a4.755,4.755,0,0,1-.129-1.574,9.565,9.565,0,0,0-.143-2.118,3.7,3.7,0,0,1-.1-.608c-.007-.084-.011-.163-.011-.239h.032a28.382,28.382,0,0,0,6.29-.647c.078-.016.156-.032.231-.052s.149-.036.221-.056.139-.04.206-.06l.026-.007c.063-.019.124-.04.183-.06l.149-.053c.044-.015.089-.032.132-.049.08-.031.158-.062.234-.1l.11-.049c.047-.021.093-.041.137-.063s.095-.045.145-.071l.032-.016c.056-.028.111-.057.164-.086s.1-.051.14-.077c.061-.034.121-.068.181-.1l.049-.03.1-.062c.107-.066.21-.132.31-.2l.045-.03.075-.051.162-.111.062-.043.212-.15.293-.206c.062-.045.124-.086.183-.126l.048-.032.1-.066.042-.026c.032-.021.063-.039.093-.058l.025-.015a3.253,3.253,0,0,1,.352-.186c.029-.014.058-.026.086-.037l.014-.005h0l.005,0c.026-.011.052-.02.081-.03a.616.616,0,0,1,.077-.025l.056-.015.014,0,.012,0,.029-.006.032-.007c.035-.007.069-.013.1-.019a1.42,1.42,0,0,1,.35-.007l.016.013h0c.01.008.023.019.04.034.042.154.085.315.128.487s.09.379.134.574c.068.309.128.587.181.851a4.475,4.475,0,0,0,1.682,3.076l.029.024.011.008c.281.218.436.337.378.61a2.175,2.175,0,0,0,.357,1.677l.036.059a15.548,15.548,0,0,1-.629,4.767,2.5,2.5,0,0,0-.363,1.541,1.169,1.169,0,0,1-.364.667.363.363,0,0,0-.1.1c-.044.043-.074.068-.075.07l-.038.032.015.026c-.223.3-.6.857-.791,1.146l-.024.033-.324.487-.173.261.092.025a5.32,5.32,0,0,0,1.266.16,2.5,2.5,0,0,0,1.4-.344l.04-.027-.01-.053c0-.014-.244-1.312.2-1.759a.078.078,0,0,0,.016-.081l.012-.01-.013.005a.308.308,0,0,0,.008-.128c-.007-.079-.016-.169.239-.451.1-.107.184-.192.261-.268.31-.3.465-.455.4-1.2a15.036,15.036,0,0,1,1.069-4.854c.032-.066.059-.129.083-.191a.329.329,0,0,1,.109.282,1.987,1.987,0,0,0,.587,1.479l.044.052a7.1,7.1,0,0,1,.2,2.026,6.646,6.646,0,0,1-.174,2.149,1.85,1.85,0,0,0-.155,1.365c.044.268-.286.6-.388.693-.033,0-.064.032-.12.113l-.032.047c-.159.234-.436.705-.564.926l-.019.03-.195.339-.1.183.082.015a6.608,6.608,0,0,0,1.118.1,2.566,2.566,0,0,0,1.179-.225l.044-.024-.017-.047c0-.009-.3-.89.032-1.27a.405.405,0,0,0,.1-.075c.122-.133.115-.207.093-.29-.017-.066-.037-.141.173-.382.082-.094.157-.168.224-.235.273-.271.41-.406.238-1.072a1.837,1.837,0,0,1-.038-.207,4.524,4.524,0,0,0,.706.442l.041.017.062-.058-.013-.038a4.068,4.068,0,0,1-.064-2.021,2.8,2.8,0,0,0,1.071,2.455l0,.006h.015c.036.006.072.011.108.015a3.935,3.935,0,0,0,.427.024,2.486,2.486,0,0,0,.827-.127l.029-.013.018-.059-.016-.024a6.673,6.673,0,0,1-.759-1.983,6.954,6.954,0,0,0,1.171,1.684l.043.039.086-.07Zm-4.2-8.544c-.165-.226-.342-.477-.529-.773a2.378,2.378,0,0,1-.212-2.393.446.446,0,0,0,.061-.106c.1-.248.261-.548.447-.894a12.626,12.626,0,0,0,1.192-2.811,34.348,34.348,0,0,1-.939,6.884C223.708,202.509,223.7,202.542,223.7,202.573Z" transform="translate(-168.775 -171.294)"/><g transform="translate(8.733 29.436)"><path class="b" d="M166.166,238.31a2.616,2.616,0,0,1-1.289-.3,2,2,0,0,1-.832-.848,2.789,2.789,0,0,1-.29-1.313,2.732,2.732,0,0,1,.293-1.3,2.1,2.1,0,0,1,.82-.862,2.423,2.423,0,0,1,1.249-.309,2.609,2.609,0,0,1,.932.159,1.972,1.972,0,0,1,.728.467,2.189,2.189,0,0,1,.477.768,2.98,2.98,0,0,1,.17,1.041v.381h-4.137v-.883h2.727a.864.864,0,0,0-.115-.433.793.793,0,0,0-.3-.3.978.978,0,0,0-.9.006.842.842,0,0,0-.319.309.874.874,0,0,0-.124.438v.9a1.078,1.078,0,0,0,.115.51.81.81,0,0,0,.325.341.991.991,0,0,0,.5.121,1.2,1.2,0,0,0,.366-.055.751.751,0,0,0,.282-.167.675.675,0,0,0,.178-.265l1.392.04a1.749,1.749,0,0,1-.38.816,1.92,1.92,0,0,1-.768.537A2.933,2.933,0,0,1,166.166,238.31Z" transform="translate(-163.755 -232.304)"/><path class="b" d="M180.657,234.9l-1.392.038a.546.546,0,0,0-.118-.266.624.624,0,0,0-.25-.181.841.841,0,0,0-.354-.069.906.906,0,0,0-.449.107.324.324,0,0,0-.181.286.307.307,0,0,0,.115.243.919.919,0,0,0,.417.164l.915.176a2.142,2.142,0,0,1,1.062.453,1.089,1.089,0,0,1,.354.84,1.368,1.368,0,0,1-.29.854,1.872,1.872,0,0,1-.783.565,3.027,3.027,0,0,1-1.133.2,2.7,2.7,0,0,1-1.608-.421,1.557,1.557,0,0,1-.67-1.128l1.5-.037a.59.59,0,0,0,.259.4.954.954,0,0,0,.53.135.934.934,0,0,0,.475-.109.327.327,0,0,0,.184-.288.308.308,0,0,0-.141-.26,1.205,1.205,0,0,0-.437-.153l-.831-.159a1.96,1.96,0,0,1-1.068-.484,1.208,1.208,0,0,1-.345-.9,1.284,1.284,0,0,1,.253-.817,1.606,1.606,0,0,1,.731-.522,3.132,3.132,0,0,1,1.119-.179,2.538,2.538,0,0,1,1.525.4A1.466,1.466,0,0,1,180.657,234.9Z" transform="translate(-171.227 -232.304)"/><path class="b" d="M191.016,231.857v1.12h-3v-1.12Zm-2.374-1.142h1.516v4.417a.5.5,0,0,0,.043.225.283.283,0,0,0,.132.121.555.555,0,0,0,.207.035,1.02,1.02,0,0,0,.184-.017c.066-.011.115-.02.15-.029l.227,1.1c-.072.02-.172.046-.3.078a2.514,2.514,0,0,1-.469.06,2.211,2.211,0,0,1-.912-.127,1.172,1.172,0,0,1-.581-.47,1.455,1.455,0,0,1-.193-.8Z" transform="translate(-178.214 -230.715)"/><path class="b" d="M197.855,243.183a.77.77,0,0,1-.57-.237.761.761,0,0,1-.236-.571.751.751,0,0,1,.236-.563.77.77,0,0,1,.57-.237.778.778,0,0,1,.561.237.772.772,0,0,1,.13.969.873.873,0,0,1-.294.294A.756.756,0,0,1,197.855,243.183Z" transform="translate(-183.601 -237.177)"/><path class="b" d="M164.042,254.8v-1.108l2.316-2.031c.172-.159.319-.3.443-.433a1.771,1.771,0,0,0,.279-.4,1.016,1.016,0,0,0,.095-.438.847.847,0,0,0-.115-.453.766.766,0,0,0-.316-.288,1.067,1.067,0,0,0-.923,0,.747.747,0,0,0-.308.311.99.99,0,0,0-.109.49h-1.456a2.081,2.081,0,0,1,.294-1.122,1.907,1.907,0,0,1,.82-.73,2.781,2.781,0,0,1,1.228-.257,3,3,0,0,1,1.254.242,1.918,1.918,0,0,1,.826.678,1.746,1.746,0,0,1,.293,1,1.88,1.88,0,0,1-.147.721,2.893,2.893,0,0,1-.521.79,11.529,11.529,0,0,1-1.067,1.036l-.76.7v.04h2.572V254.8Z" transform="translate(-163.869 -241.206)"/><path class="b" d="M179.861,254.958a2.421,2.421,0,0,1-2.359-1.538,5.065,5.065,0,0,1,.006-3.571,2.474,2.474,0,0,1,.923-1.116,2.867,2.867,0,0,1,2.865,0,2.472,2.472,0,0,1,.927,1.12,4.286,4.286,0,0,1,.322,1.777,4.459,4.459,0,0,1-.325,1.8,2.525,2.525,0,0,1-.924,1.139A2.582,2.582,0,0,1,179.861,254.958Zm0-1.258a.914.914,0,0,0,.8-.51,3.077,3.077,0,0,0,.3-1.561,3.849,3.849,0,0,0-.141-1.139,1.449,1.449,0,0,0-.386-.67.851.851,0,0,0-.581-.222.912.912,0,0,0-.8.5,3.039,3.039,0,0,0-.3,1.532,4.007,4.007,0,0,0,.135,1.16,1.467,1.467,0,0,0,.388.684A.842.842,0,0,0,179.861,253.7Z" transform="translate(-171.757 -241.206)"/><path class="b" d="M191.633,254.8v-1.108l2.316-2.031c.173-.159.32-.3.443-.433a1.769,1.769,0,0,0,.279-.4,1.016,1.016,0,0,0,.095-.438.85.85,0,0,0-.115-.453.768.768,0,0,0-.316-.288,1.067,1.067,0,0,0-.924,0,.749.749,0,0,0-.308.311.99.99,0,0,0-.109.49h-1.456a2.084,2.084,0,0,1,.293-1.122,1.909,1.909,0,0,1,.82-.73,2.783,2.783,0,0,1,1.228-.257,3,3,0,0,1,1.254.242,1.913,1.913,0,0,1,.826.678,1.743,1.743,0,0,1,.294,1,1.88,1.88,0,0,1-.147.721,2.9,2.9,0,0,1-.521.79,11.487,11.487,0,0,1-1.068,1.036l-.759.7v.04h2.572V254.8Z" transform="translate(-180.315 -241.206)"/><path class="b" d="M207.676,248.563v6.366h-1.531V250h-.037l-1.421.871v-1.33l1.565-.978Z" transform="translate(-188.153 -241.334)"/></g><g transform="translate(24.709 16.251)"><path class="b" d="M330.172,235.146V232.9c1.5-.2,1.737-.369,1.737-1.911v-8.515c0-1.508-.534-2.112-2.171-2.112a8.4,8.4,0,0,0-2.809.569V230.99c0,1.542.268,1.71,1.771,1.911v2.246h-9.827V232.9c1.5-.2,1.771-.369,1.771-1.911v-8.515c0-1.508-.568-2.112-2.173-2.112a8.394,8.394,0,0,0-2.807.569V230.99c0,1.542.268,1.71,1.771,1.911v2.246h-10.1V232.9c1.5-.2,2.039-.369,2.039-1.911v-9.755l-1.871-1.979V218.05l7.052-1.843h1.1v3.688c1.369-1.576,3.175-3.519,6.15-3.519a4.762,4.762,0,0,1,4.881,3.688c1.4-1.542,3.543-3.688,6.653-3.688,3.009,0,4.847,1.608,4.847,5.43v9.185c0,1.542.5,1.71,2.008,1.911v2.246Z" transform="translate(-265.317 -208.899)"/><path class="b" d="M397.137,220.256c0,1.542.534,1.71,2.039,1.911v2.246H388.813v-2.246c1.5-.2,2.04-.369,2.04-1.911v-9.889l-1.872-2.011v-1.041l7.052-1.708h1.1Zm-6.652-18.905a3.435,3.435,0,1,1,3.443,3.184A3.208,3.208,0,0,1,390.485,201.35Z" transform="translate(-313.881 -198.164)"/><path class="b" d="M421.015,219.221c0,3.856-.969,5.7-2.405,7.342a16.872,16.872,0,0,1-5.182,4.088l-1.2-1.139,1.371-2.314c1.07-1.811,1.1-3.922,1.1-6.536v-10.3l-1.837-2.011v-1.041l7.054-1.708h1.1Zm-6.652-17.871a3.436,3.436,0,1,1,3.443,3.184A3.209,3.209,0,0,1,414.362,201.35Z" transform="translate(-327.835 -198.164)"/><path class="b" d="M451.106,222.475c0-1.374-.468-2.112-2.039-2.112a9.841,9.841,0,0,0-3.209.569V230.99c0,1.542.368,1.71,1.871,1.911v2.246h-10.2V232.9c1.5-.2,2.039-.369,2.039-1.911v-9.755l-1.872-1.979V218.05l7.053-1.843h1.1v3.688c1.37-1.576,3.543-3.519,6.452-3.519,3.275,0,5.081,1.777,5.081,5.5v9.119c0,1.542.5,1.71,2.006,1.911v2.246H449.266V232.9c1.505-.2,1.84-.369,1.84-1.911Z" transform="translate(-342.921 -208.899)"/><path class="b" d="M208.99,312.277c0,1.544,1.1,1.711,2.609,1.911v1.175h-8.292v-1.175c1.505-.2,2.607-.367,2.607-1.911V295.385l-2.44-1.173v-.7l4.713-1.676h.8v2.915a7.024,7.024,0,0,1,5.716-2.915c4.547,0,6.921,3.753,6.921,8.381,0,6.2-3.845,10.055-8.256,10.055a5.2,5.2,0,0,1-4.381-1.843Zm9.562-10.657c0-3.787-1.472-7.543-5.215-7.543a6.088,6.088,0,0,0-4.347,1.642v8.347c0,3.084,1.705,4.66,4.313,4.66C216.412,308.726,218.551,305.943,218.551,301.62Z" transform="translate(-203.307 -253.892)"/><path class="b" d="M264.47,305.777c0,1.474.568,2.28,1.538,2.28a7.689,7.689,0,0,0,1.57-.2l.168.806a4.565,4.565,0,0,1-3.343,1.608c-1.706,0-2.542-1.239-2.841-3.05-1.2,1.374-3.109,3.05-5.583,3.05a4.177,4.177,0,0,1-4.447-4.525c0-3.118,2.475-4.191,4.647-4.961l5.283-1.911V297.23c0-2.013-.7-3.79-3.309-3.79-1.806,0-2.741.772-2.741,2.482a6.737,6.737,0,0,0,.234,1.742l-2.507.335a2.35,2.35,0,0,1-.7-1.811c0-2.749,2.708-4.357,6.351-4.357,3.845,0,5.785,1.977,5.785,5.632C264.57,298.569,264.47,304.369,264.47,305.777Zm-3.009.638v-6l-4.747,1.811a2.886,2.886,0,0,0-2.04,2.715c0,1.911.97,2.984,2.674,2.984A6.38,6.38,0,0,0,261.461,306.414Z" transform="translate(-232.052 -253.892)"/><path class="b" d="M304.586,305.777c0,1.474.568,2.28,1.538,2.28a7.682,7.682,0,0,0,1.569-.2l.168.806a4.565,4.565,0,0,1-3.343,1.608c-1.706,0-2.542-1.239-2.841-3.05-1.2,1.374-3.109,3.05-5.583,3.05a4.177,4.177,0,0,1-4.447-4.525c0-3.118,2.475-4.191,4.647-4.961l5.283-1.911V297.23c0-2.013-.7-3.79-3.309-3.79-1.806,0-2.741.772-2.741,2.482a6.737,6.737,0,0,0,.234,1.742l-2.507.335a2.35,2.35,0,0,1-.7-1.811c0-2.749,2.708-4.357,6.351-4.357,3.845,0,5.784,1.977,5.784,5.632C304.686,298.569,304.586,304.369,304.586,305.777Zm-3.009.638v-6l-4.747,1.811a2.886,2.886,0,0,0-2.039,2.715c0,1.911.97,2.984,2.674,2.984A6.38,6.38,0,0,0,301.577,306.414Z" transform="translate(-255.963 -253.892)"/><path class="b" d="M337,297.127c2.174-3.888,2.975-5.3,5.049-5.3a1.623,1.623,0,0,1,1.236.469v2.984h-.7c-2.072,0-3.409.3-5.583,2.915v8.516c0,1.676.836,1.776,3.243,2.045v1.173h-8.892V308.76c1.469-.2,2.573-.369,2.573-1.911V295.385l-2.407-1.173v-.7l4.615-1.676H337Z" transform="translate(-279.63 -253.892)"/><path class="b" d="M373.519,297.8A6.668,6.668,0,0,1,368,300.783c-4.547,0-7.121-3.753-7.121-8.379,0-6.2,3.711-10.057,8.424-10.057a5.117,5.117,0,0,1,4.211,1.843v-4.747l-2.439-1.173v-.7l4.713-1.676h.8v20.938c0,1.141.366,1.375,1.906,1.542l.868.1v1.139l-5.348,1.173h-.5Zm-9.56-6.637c0,3.787,1.638,7.308,5.215,7.308a6.069,6.069,0,0,0,4.345-1.711v-8.212c0-3.184-1.7-4.66-4.311-4.66C366.065,283.888,363.959,286.838,363.959,291.163Z" transform="translate(-297.233 -244.407)"/><path class="b" d="M276.946,375.636l9.36-14.581H283.5c-1.874,0-2.342,1.139-3.745,4.658h-2.307v-6.937H293.76v1.676L284.668,374.9h2.573c2.206,0,2.841-1,4.613-4.658H294.2l-.77,6.971h-16.48Z" transform="translate(-247.201 -293.721)"/><path class="b" d="M320.864,367.8c0-6.035,4.179-9.857,9.828-9.857a8.913,8.913,0,0,1,9.328,9.219c0,6.067-4.213,9.889-9.862,9.889A8.911,8.911,0,0,1,320.864,367.8Zm12.669.7c0-4.694-1.236-8.213-3.409-8.213-1.837,0-2.807,2.615-2.807,6.2,0,4.692,1.236,8.178,3.443,8.178C332.565,374.672,333.533,372.091,333.533,368.5Z" transform="translate(-273.379 -293.226)"/><path class="b" d="M386.344,365.621v1.307H375.413c0,3.286,2.14,5.329,5.081,5.329a5.694,5.694,0,0,0,4.815-2.278l1.1.736a7.627,7.627,0,0,1-7.888,6.336c-4.981,0-8.692-3.385-8.692-8.95,0-6.134,4.145-10.158,9.16-10.158C383.837,357.944,386.344,361.431,386.344,365.621Zm-10.866-.7h5.483c-.032-2.749-.8-4.66-2.54-4.66C376.517,360.258,375.713,362.4,375.479,364.918Z" transform="translate(-302.566 -293.226)"/><path class="b" d="M419.6,364.459c0,1.542.534,1.71,2.039,1.911v2.246H411.273v-2.246c1.538-.2,2.039-.369,2.039-1.911V348.851l-1.873-1.977v-1.241l7.088-1.307h1.07Zm4.479-9.722c.468-.5.9-.87.9-1.273,0-.738-.568-.872-2.105-1.073v-2.212H431.7v2.212a6.041,6.041,0,0,0-3.109,1.376l-2.975,2.949,6.753,10.158v1.742h-6.419l-6.117-9.788Z" transform="translate(-327.268 -285.124)"/><path class="b" d="M472.05,352.521H476.5v2.514H472.05v10.324c0,1.576.634,2.314,2.072,2.314a5.634,5.634,0,0,0,2.473-.638l.67,1.71a8.329,8.329,0,0,1-6.184,2.547c-3.577,0-5.383-1.676-5.383-5.329V355.035h-2.205V353.19a16.1,16.1,0,0,0,6.585-4.928h1.973Z" transform="translate(-358.394 -287.466)"/></g><path class="a" d="M418.346,301.771H414.47l8.251-23.4H426.6Z" transform="translate(-304.465 -229.633)"/><ellipse class="b" cx="3.302" cy="3.311" rx="3.302" ry="3.311" transform="translate(145.871 93.024)"/></svg>