<svg xmlns="http://www.w3.org/2000/svg" width="150.908" height="99.848" viewBox="0 0 150.908 99.848"><defs><style>.a{fill:#494140;}</style></defs><g transform="translate(-425.202 -602.282)"><g transform="translate(445.806 614.106)"><path class="a" d="M488.429,645.5a15.579,15.579,0,0,1-1.4-3.718,21.582,21.582,0,0,1-.522-4.268,3.45,3.45,0,0,0,.551,1.649l.164.18-.065-.235a17.887,17.887,0,0,1-.344-5.314,18.608,18.608,0,0,0-.319-5.28c-.841-3.242-2.775-3.827-2.993-3.884l-.009,0a7.6,7.6,0,0,0-2.174-.977,8.118,8.118,0,0,0-4.4-.091c-.259.06-.633.165-1.066.288-2.026.574-5.417,1.534-6.839.69-.08-.048-.159-.092-.237-.136a9.816,9.816,0,0,0-1.026-.491,13.187,13.187,0,0,0-2.4-.7l-.205-.043c-.186-.038-.354-.073-.5-.108a2.566,2.566,0,0,1-.289-.092l0,0-.092-.037a.852.852,0,0,1-.482-.522.731.731,0,0,0-.568-.451c-.174-.033-.249-.14-.385-.335a4.2,4.2,0,0,0-.316-.41,4.762,4.762,0,0,0-.932-.75c-.116-.077-.216-.145-.267-.189l-.029-.026a3.768,3.768,0,0,0-1.449-.918,2.526,2.526,0,0,1-1.084-.7c-.091-.084-.169-.156-.23-.2a2.12,2.12,0,0,0-1.031-.456.729.729,0,0,1-.26-.142,3.217,3.217,0,0,1-2.84-1.018,1.313,1.313,0,0,1-.475-.86l-.019-.225-.091.208a2.429,2.429,0,0,0-.1,1.309l-.062.012c-.034-.029-.066-.058-.1-.088a1.305,1.305,0,0,1-.474-.86l-.02-.225-.091.208a2.4,2.4,0,0,0-.1,1.277,1.43,1.43,0,0,0-.482.493l-.112.2.193-.12c.061-.039.142-.086.221-.131a2.127,2.127,0,0,0-.355.6l-.015.043.075-.033,0,.006c-.134.171-.259.34-.37.5l-.147.207-.1.144c-.117.167-.218.311-.289.4a5.584,5.584,0,0,0-.391.6,10.261,10.261,0,0,1-1.156,1.638,9.349,9.349,0,0,0-.974,1.308,2.049,2.049,0,0,0-.328.8.7.7,0,0,0,.07.334,1.7,1.7,0,0,1,.111.371l0,.034c0,.029.01.06.013.092a.6.6,0,0,0,.133.311l.018.021h0a.729.729,0,0,0,.276.186,1.148,1.148,0,0,0,.283.074.139.139,0,0,0,0,.047.112.112,0,0,0,.01.02l.012.018c.062.071.214.067.58.052.12-.005.259-.011.413-.014.5-.009.545-.272.579-.464a.334.334,0,0,1,.1-.226c.214-.155,1.657-.756,1.783-.808l.239-.019a3.052,3.052,0,0,0,1.693-.532.9.9,0,0,0,.156-.187,1.407,1.407,0,0,0,.1-.161,1.121,1.121,0,0,1,.659.072,1.91,1.91,0,0,1,.435.225c.03.02.061.042.091.066a6.3,6.3,0,0,1,1.179,2.018c.29.63.591,1.281.942,1.876a3.122,3.122,0,0,1,.639,1.851c0,.033,0,.066-.005.1l.057,0h0l-.057.011c-.005.067-.011.135-.018.206l0,.047c0,.017,0,.033,0,.048-.013.137-.025.289-.034.465a3.688,3.688,0,0,0,.15,1.234l0,.011a2.649,2.649,0,0,0,.215.523c.363,1.286.764,1.881,1.525,2.255l.005.021h0l.026.1a2.63,2.63,0,0,1,.077.393,10.35,10.35,0,0,0,.738,2.635,14.468,14.468,0,0,1,.6,3.331v.015a6.611,6.611,0,0,0,.311,1.459,12.383,12.383,0,0,1,.131,2.461c0,.145,0,.253,0,.305a.261.261,0,0,1-.1.231.46.46,0,0,0-.151.273.321.321,0,0,0,.024.238.808.808,0,0,1,.057.436c-.014.466-.651.882-.809.978h0c-.027,0-.051.01-.085.05l-.04.022.017.009a.3.3,0,0,0-.022.03l-.031.045c-.155.227-.423.682-.548.9l-.018.029c-.077.133-.143.248-.188.327l-.1.178.078.015a6.393,6.393,0,0,0,1.085.1,2.493,2.493,0,0,0,1.143-.217l.043-.024-.016-.046c0-.009-.308-.909.058-1.257l.008-.011.048-.02.035-.016,0-.04c-.012-.245.469-.661.876-.842.452-.2.337-.874.165-1.506a11.2,11.2,0,0,1-.223-3.418l.038-.111a1.29,1.29,0,0,0,.016-1.171,4.461,4.461,0,0,1,.051-1.539c.019-.158.038-.319.055-.482.223.757.415,1.615.513,2.08l0,.015c.018.089.072.329.172.647a6.144,6.144,0,0,0,.308.8,12.755,12.755,0,0,1,.418,2.446c.016.144.028.252.035.3a.229.229,0,0,1-.07.225.4.4,0,0,0-.122.274.331.331,0,0,0,.051.236.865.865,0,0,1,.109.435c.043.5-.658.947-.719.984l-.013.008-.082.049.026.013c-.008.012-.016.025-.024.039l-.026.046c-.128.224-.34.672-.441.886l-.017.034c-.062.132-.114.246-.15.325l-.08.173.073.013a6.592,6.592,0,0,0,1.1.1h.047l.074,0,.059,0,.111-.005.045,0,.086-.008.052-.006.1-.014.064-.011.031-.006a1.5,1.5,0,0,0,.455-.159l.046-.026-.023-.047c0-.009-.414-.9-.09-1.247a.071.071,0,0,0,.017-.028l.03-.014.039-.018-.007-.042c-.04-.241.39-.652.773-.83.434-.2.24-.873-.006-1.5a11.8,11.8,0,0,1-.622-3.4l.024-.11a1.3,1.3,0,0,0-.116-1.159l-.008-.012a4.588,4.588,0,0,1-.125-1.522,9.242,9.242,0,0,0-.137-2.048,3.461,3.461,0,0,1-.1-.588c-.007-.08-.01-.157-.01-.231h.031a27.579,27.579,0,0,0,6.1-.625c.076-.015.15-.032.223-.05s.144-.034.215-.055.135-.038.2-.058l.026-.007c.061-.018.12-.038.178-.058s.1-.033.145-.051.086-.031.128-.047q.116-.045.227-.092l.106-.048c.046-.019.091-.04.133-.06l.141-.069.031-.016c.054-.027.107-.055.159-.083s.092-.049.135-.075c.06-.032.118-.066.175-.1l.048-.028.1-.061c.1-.063.2-.128.3-.191l.043-.03.073-.048.157-.108.061-.041.206-.145.284-.2c.061-.043.12-.083.178-.121l.047-.032c.031-.02.061-.04.1-.063l.041-.026c.03-.02.061-.039.09-.056l.025-.014a2.989,2.989,0,0,1,.341-.18c.028-.013.056-.026.084-.036l.013-.005h0l.005,0a.792.792,0,0,1,.078-.028.571.571,0,0,1,.075-.025l.054-.015.014,0,.011,0,.028-.006.032-.007c.034-.007.067-.012.1-.018a1.336,1.336,0,0,1,.339-.006l.016.012h0l.038.033c.041.149.083.305.124.471.044.181.088.367.13.555.066.3.124.567.176.822a4.324,4.324,0,0,0,1.63,2.973l.028.024.011.008c.272.21.422.326.367.59a2.1,2.1,0,0,0,.346,1.621l.034.057a15.029,15.029,0,0,1-.61,4.609,2.413,2.413,0,0,0-.353,1.489,1.125,1.125,0,0,1-.353.644.375.375,0,0,0-.1.1c-.043.041-.072.067-.073.068l-.037.032.015.025c-.216.294-.579.83-.767,1.108l-.023.033c-.126.187-.237.353-.315.471l-.168.253.09.025a5.189,5.189,0,0,0,1.228.154,2.43,2.43,0,0,0,1.352-.333l.039-.026-.01-.052c0-.014-.237-1.269.19-1.7a.076.076,0,0,0,.016-.079l.011-.009-.012,0a.31.31,0,0,0,.009-.123c-.008-.077-.016-.164.231-.436.093-.1.179-.186.253-.259.3-.293.451-.44.386-1.163a14.519,14.519,0,0,1,1.036-4.692c.031-.063.057-.125.081-.185a.316.316,0,0,1,.1.273,1.919,1.919,0,0,0,.569,1.43l.042.05a6.839,6.839,0,0,1,.193,1.959,6.4,6.4,0,0,1-.169,2.077,1.784,1.784,0,0,0-.15,1.32c.043.26-.277.578-.376.67-.033,0-.062.03-.117.109l-.032.045c-.154.227-.422.682-.547.9l-.018.029c-.077.132-.143.247-.188.327l-.1.178.078.015a6.4,6.4,0,0,0,1.085.1,2.493,2.493,0,0,0,1.143-.217l.043-.024-.016-.046c0-.009-.291-.86.031-1.228a.382.382,0,0,0,.1-.073c.118-.128.111-.2.09-.28-.017-.064-.036-.136.168-.369.079-.091.152-.163.216-.227.265-.261.4-.392.231-1.036a1.637,1.637,0,0,1-.037-.2,4.46,4.46,0,0,0,.684.427l.04.017.06-.056-.013-.037a3.926,3.926,0,0,1-.062-1.953,2.7,2.7,0,0,0,1.038,2.372l0,.006h.014c.035.006.07.011.106.014a3.781,3.781,0,0,0,.413.024,2.429,2.429,0,0,0,.8-.122l.028-.012.018-.057-.015-.024a6.4,6.4,0,0,1-.736-1.917,6.739,6.739,0,0,0,1.135,1.628l.042.037.083-.067Zm-4.068-8.259c-.16-.218-.332-.461-.513-.748a2.294,2.294,0,0,1-.206-2.313.427.427,0,0,0,.06-.1c.1-.24.253-.53.433-.865a12.2,12.2,0,0,0,1.156-2.718,33.143,33.143,0,0,1-.91,6.655C484.373,637.178,484.368,637.209,484.361,637.239Z" transform="translate(-448.624 -615.723)"/></g><g transform="translate(436.772 633.84)"><path class="a" d="M440.69,644.106a2.54,2.54,0,0,1-1.249-.288,1.931,1.931,0,0,1-.806-.82,2.678,2.678,0,0,1-.281-1.268,2.626,2.626,0,0,1,.284-1.252,2.023,2.023,0,0,1,.794-.834,2.357,2.357,0,0,1,1.21-.3,2.542,2.542,0,0,1,.9.153,1.9,1.9,0,0,1,.706.452,2.11,2.11,0,0,1,.464.742,2.888,2.888,0,0,1,.164,1.006v.369h-4.01v-.853h2.643a.83.83,0,0,0-.112-.419.764.764,0,0,0-.3-.287.867.867,0,0,0-.432-.1.877.877,0,0,0-.441.109.812.812,0,0,0-.31.3.846.846,0,0,0-.12.424v.87a1.036,1.036,0,0,0,.112.493.778.778,0,0,0,.315.329.959.959,0,0,0,.486.117,1.164,1.164,0,0,0,.354-.053.719.719,0,0,0,.274-.162.644.644,0,0,0,.172-.256l1.35.039a1.693,1.693,0,0,1-.369.789,1.859,1.859,0,0,1-.744.519A2.855,2.855,0,0,1,440.69,644.106Z" transform="translate(-438.354 -638.3)"/><path class="a" d="M448.166,640.813l-1.349.036a.519.519,0,0,0-.114-.256.6.6,0,0,0-.243-.176.816.816,0,0,0-.343-.067.88.88,0,0,0-.435.1.312.312,0,0,0-.176.276.294.294,0,0,0,.112.234.878.878,0,0,0,.4.159l.887.17a2.081,2.081,0,0,1,1.029.438,1.05,1.05,0,0,1,.343.812,1.318,1.318,0,0,1-.282.825,1.812,1.812,0,0,1-.758.546,2.936,2.936,0,0,1-1.1.193,2.615,2.615,0,0,1-1.559-.407,1.5,1.5,0,0,1-.65-1.09l1.45-.037a.569.569,0,0,0,.252.385.928.928,0,0,0,.513.131.9.9,0,0,0,.46-.106.316.316,0,0,0,.179-.279.3.3,0,0,0-.136-.251,1.17,1.17,0,0,0-.424-.148l-.806-.153a1.9,1.9,0,0,1-1.035-.469,1.167,1.167,0,0,1-.334-.87,1.24,1.24,0,0,1,.245-.789,1.561,1.561,0,0,1,.708-.5,3.047,3.047,0,0,1,1.085-.172,2.469,2.469,0,0,1,1.479.39A1.414,1.414,0,0,1,448.166,640.813Z" transform="translate(-439.025 -638.3)"/><path class="a" d="M452.062,639.261v1.082h-2.911v-1.082Zm-2.3-1.1h1.47v4.269a.5.5,0,0,0,.041.218.28.28,0,0,0,.128.117.55.55,0,0,0,.2.033,1.063,1.063,0,0,0,.179-.017c.064-.011.112-.02.145-.028l.221,1.06c-.07.019-.168.044-.3.075a2.475,2.475,0,0,1-.455.059,2.146,2.146,0,0,1-.884-.123,1.13,1.13,0,0,1-.563-.454,1.4,1.4,0,0,1-.187-.779Z" transform="translate(-439.653 -638.157)"/><path class="a" d="M453.954,644.545a.747.747,0,0,1-.552-.229.731.731,0,0,1-.229-.552.721.721,0,0,1,.229-.544.748.748,0,0,1,.552-.229.759.759,0,0,1,.545.229.745.745,0,0,1,.125.937.838.838,0,0,1-.284.285A.74.74,0,0,1,453.954,644.545Z" transform="translate(-440.137 -638.739)"/><path class="a" d="M438.531,652.245v-1.072l2.245-1.963c.167-.153.31-.292.429-.418a1.712,1.712,0,0,0,.27-.385.976.976,0,0,0,.092-.423.813.813,0,0,0-.112-.438.742.742,0,0,0-.307-.279,1.036,1.036,0,0,0-.895,0,.718.718,0,0,0-.3.3.95.95,0,0,0-.106.474h-1.411a2.015,2.015,0,0,1,.284-1.085,1.855,1.855,0,0,1,.8-.706,2.7,2.7,0,0,1,1.191-.248,2.929,2.929,0,0,1,1.216.234,1.862,1.862,0,0,1,.8.655,1.688,1.688,0,0,1,.284.97,1.809,1.809,0,0,1-.142.7,2.789,2.789,0,0,1-.5.764,10.967,10.967,0,0,1-1.035,1l-.736.677v.039h2.493v1.2Z" transform="translate(-438.364 -639.101)"/><path class="a" d="M446.928,652.4a2.351,2.351,0,0,1-2.287-1.487,4.882,4.882,0,0,1,.006-3.453,2.392,2.392,0,0,1,.895-1.079,2.784,2.784,0,0,1,2.778,0,2.389,2.389,0,0,1,.9,1.082,4.12,4.12,0,0,1,.312,1.717,4.294,4.294,0,0,1-.315,1.737,2.446,2.446,0,0,1-.895,1.1A2.513,2.513,0,0,1,446.928,652.4Zm0-1.216a.885.885,0,0,0,.778-.494,2.962,2.962,0,0,0,.3-1.509,3.732,3.732,0,0,0-.136-1.1,1.4,1.4,0,0,0-.374-.647.825.825,0,0,0-.563-.215.884.884,0,0,0-.772.482,2.931,2.931,0,0,0-.3,1.48,3.825,3.825,0,0,0,.131,1.122,1.412,1.412,0,0,0,.377.661A.815.815,0,0,0,446.928,651.179Z" transform="translate(-439.073 -639.101)"/><path class="a" d="M450.812,652.245v-1.072l2.245-1.963c.167-.153.31-.292.429-.418a1.682,1.682,0,0,0,.27-.385.976.976,0,0,0,.092-.423.813.813,0,0,0-.112-.438.74.74,0,0,0-.306-.279,1.038,1.038,0,0,0-.9,0,.717.717,0,0,0-.3.3.949.949,0,0,0-.106.474H450.72a2.008,2.008,0,0,1,.285-1.085,1.849,1.849,0,0,1,.794-.706,2.7,2.7,0,0,1,1.191-.248,2.929,2.929,0,0,1,1.216.234,1.862,1.862,0,0,1,.8.655,1.688,1.688,0,0,1,.284.97,1.81,1.81,0,0,1-.142.7,2.8,2.8,0,0,1-.5.764,11.115,11.115,0,0,1-1.035,1l-.735.677v.039h2.493v1.2Z" transform="translate(-439.842 -639.101)"/><path class="a" d="M459.471,646.1v6.155h-1.484V647.49h-.036l-1.378.842v-1.285l1.517-.946Z" transform="translate(-440.546 -639.113)"/></g><g transform="translate(452.258 621.095)"><path class="a" d="M524.4,650.008v-2.17c1.458-.194,1.685-.357,1.685-1.847v-8.232c0-1.458-.518-2.041-2.105-2.041a8.158,8.158,0,0,0-2.723.551v9.722c0,1.49.259,1.653,1.717,1.847v2.17h-9.527v-2.17c1.458-.194,1.718-.357,1.718-1.847v-8.232c0-1.458-.551-2.041-2.107-2.041a8.158,8.158,0,0,0-2.722.551v9.722c0,1.49.26,1.653,1.717,1.847v2.17h-9.786v-2.17c1.458-.194,1.977-.357,1.977-1.847v-9.43l-1.815-1.912V633.48l6.837-1.781h1.07v3.564c1.327-1.524,3.078-3.4,5.963-3.4a4.615,4.615,0,0,1,4.731,3.564c1.361-1.49,3.435-3.564,6.449-3.564,2.917,0,4.7,1.554,4.7,5.249v8.879c0,1.49.486,1.653,1.946,1.847v2.17Z" transform="translate(-461.531 -624.634)"/><path class="a" d="M546.6,645.024c0,1.49.517,1.653,1.977,1.847v2.17H538.531v-2.17c1.458-.194,1.977-.357,1.977-1.847v-9.559l-1.814-1.944v-1.006l6.836-1.651H546.6Zm-6.449-18.276a3.331,3.331,0,1,1,3.338,3.078A3.107,3.107,0,0,1,540.151,626.748Z" transform="translate(-465.894 -623.668)"/><path class="a" d="M557.473,644.024c0,3.728-.94,5.509-2.332,7.1a16.341,16.341,0,0,1-5.024,3.953l-1.166-1.1,1.329-2.236c1.037-1.75,1.068-3.791,1.068-6.319v-9.953l-1.781-1.944v-1.006l6.839-1.651h1.068Zm-6.449-17.276a3.332,3.332,0,1,1,3.338,3.078A3.107,3.107,0,0,1,551.024,626.748Z" transform="translate(-467.148 -623.668)"/><path class="a" d="M573.373,637.758c0-1.327-.453-2.041-1.977-2.041a9.563,9.563,0,0,0-3.111.551v9.722c0,1.49.357,1.653,1.815,1.847v2.17h-9.883v-2.17c1.458-.194,1.977-.357,1.977-1.847v-9.43l-1.814-1.912V633.48l6.836-1.781h1.07v3.564c1.328-1.524,3.435-3.4,6.255-3.4,3.175,0,4.925,1.718,4.925,5.313v8.815c0,1.49.486,1.653,1.944,1.847v2.17h-9.82v-2.17c1.459-.194,1.783-.357,1.783-1.847Z" transform="translate(-468.503 -624.634)"/><path class="a" d="M461.468,685.126c0,1.493,1.07,1.653,2.529,1.847v1.136h-8.038v-1.136c1.459-.194,2.527-.354,2.527-1.847V668.8l-2.365-1.134v-.68l4.568-1.62h.778v2.819a6.814,6.814,0,0,1,5.541-2.819c4.408,0,6.708,3.629,6.708,8.1,0,5.995-3.727,9.72-8,9.72a5.047,5.047,0,0,1-4.246-1.781Zm9.268-10.3c0-3.661-1.426-7.292-5.055-7.292a5.912,5.912,0,0,0-4.214,1.587v8.069c0,2.981,1.653,4.5,4.18,4.5C468.663,681.693,470.736,679,470.736,674.824Z" transform="translate(-455.959 -628.685)"/><path class="a" d="M489.967,678.842c0,1.424.551,2.2,1.491,2.2a7.456,7.456,0,0,0,1.521-.2l.163.779a4.429,4.429,0,0,1-3.241,1.554c-1.653,0-2.463-1.2-2.754-2.948-1.166,1.327-3.014,2.948-5.412,2.948a4.043,4.043,0,0,1-4.31-4.375c0-3.014,2.4-4.051,4.5-4.8l5.121-1.847v-1.588c0-1.946-.68-3.663-3.208-3.663-1.75,0-2.657.746-2.657,2.4a6.5,6.5,0,0,0,.226,1.685l-2.43.324a2.272,2.272,0,0,1-.68-1.75c0-2.658,2.624-4.212,6.156-4.212,3.727,0,5.607,1.911,5.607,5.444C490.063,671.873,489.967,677.481,489.967,678.842Zm-2.917.616v-5.8l-4.6,1.751a2.79,2.79,0,0,0-1.977,2.625c0,1.846.939,2.884,2.591,2.884A6.19,6.19,0,0,0,487.049,679.458Z" transform="translate(-458.542 -628.685)"/><path class="a" d="M507.822,678.842c0,1.424.551,2.2,1.491,2.2a7.449,7.449,0,0,0,1.521-.2l.164.779a4.432,4.432,0,0,1-3.241,1.554c-1.654,0-2.464-1.2-2.755-2.948-1.166,1.327-3.014,2.948-5.411,2.948a4.044,4.044,0,0,1-4.311-4.375c0-3.014,2.4-4.051,4.5-4.8l5.121-1.847v-1.588c0-1.946-.68-3.663-3.207-3.663-1.75,0-2.658.746-2.658,2.4a6.5,6.5,0,0,0,.227,1.685l-2.431.324a2.269,2.269,0,0,1-.681-1.75c0-2.658,2.625-4.212,6.156-4.212,3.727,0,5.608,1.911,5.608,5.444C507.92,671.873,507.822,677.481,507.822,678.842Zm-2.917.616v-5.8l-4.6,1.751a2.791,2.791,0,0,0-1.977,2.625c0,1.846.94,2.884,2.592,2.884A6.189,6.189,0,0,0,504.906,679.458Z" transform="translate(-460.69 -628.685)"/><path class="a" d="M518.429,670.48c2.107-3.758,2.884-5.119,4.895-5.119a1.573,1.573,0,0,1,1.2.454V668.7h-.681c-2.008,0-3.3.291-5.412,2.818v8.232c0,1.62.81,1.717,3.144,1.977v1.134h-8.619v-1.134c1.424-.194,2.494-.356,2.494-1.847V668.8l-2.333-1.134v-.68l4.473-1.62h.841Z" transform="translate(-462.817 -628.685)"/><path class="a" d="M538.347,679.445A6.465,6.465,0,0,1,533,682.33c-4.407,0-6.9-3.629-6.9-8.1,0-6,3.6-9.722,8.166-9.722a4.963,4.963,0,0,1,4.082,1.781V661.7l-2.365-1.134v-.68l4.569-1.62h.779v20.24c0,1.1.355,1.329,1.847,1.49l.841.1v1.1l-5.185,1.134h-.487Zm-9.266-6.415c0,3.661,1.587,7.065,5.055,7.065a5.893,5.893,0,0,0,4.212-1.654V670.5c0-3.078-1.651-4.5-4.178-4.5C531.121,666,529.08,668.849,529.08,673.03Z" transform="translate(-464.398 -627.831)"/><path class="a" d="M488.737,711.458l9.073-14.1h-2.722c-1.816,0-2.27,1.1-3.63,4.5h-2.236v-6.707h15.814v1.62l-8.814,13.965h2.495c2.138,0,2.754-.971,4.471-4.5h2.27l-.746,6.739H488.737Z" transform="translate(-459.903 -632.27)"/><path class="a" d="M508.285,704.318c0-5.835,4.051-9.529,9.527-9.529a8.628,8.628,0,0,1,9.042,8.912c0,5.865-4.084,9.559-9.559,9.559A8.626,8.626,0,0,1,508.285,704.318Zm12.281.68c0-4.537-1.2-7.939-3.305-7.939-1.781,0-2.721,2.527-2.721,6,0,4.535,1.2,7.906,3.338,7.906C519.628,710.96,520.566,708.465,520.566,705Z" transform="translate(-462.255 -632.225)"/><path class="a" d="M546.089,702.211v1.263h-10.6a4.774,4.774,0,0,0,4.925,5.152,5.527,5.527,0,0,0,4.668-2.2l1.068.711a7.389,7.389,0,0,1-7.647,6.125c-4.828,0-8.426-3.271-8.426-8.652,0-5.929,4.018-9.819,8.88-9.819C543.659,694.789,546.089,698.159,546.089,702.211Zm-10.532-.681h5.314c-.031-2.657-.777-4.5-2.461-4.5C536.562,697.025,535.784,699.1,535.557,701.53Z" transform="translate(-464.877 -632.225)"/><path class="a" d="M556.6,708.189c0,1.491.517,1.654,1.977,1.847v2.171H548.528v-2.171c1.49-.193,1.977-.356,1.977-1.847V693.1l-1.816-1.912v-1.2l6.871-1.263H556.6Zm4.341-9.4c.454-.485.875-.841.875-1.231,0-.714-.551-.843-2.041-1.037v-2.138h8.556v2.138a5.863,5.863,0,0,0-3.015,1.33L562.43,700.7l6.546,9.819v1.685h-6.222l-5.93-9.463Z" transform="translate(-467.097 -631.496)"/><path class="a" d="M580.067,694.6h4.309v2.431h-4.309v9.98c0,1.524.615,2.237,2.008,2.237a5.467,5.467,0,0,0,2.4-.617l.649,1.654a8.084,8.084,0,0,1-5.995,2.461c-3.467,0-5.217-1.62-5.217-5.152V697.026h-2.138v-1.783a15.6,15.6,0,0,0,6.382-4.764h1.913Z" transform="translate(-469.894 -631.707)"/></g><path class="a" d="M553.709,681.989h-3.757l8-22.62h3.757Z" transform="translate(-15.01 -6.869)"/><circle class="a" cx="3.201" cy="3.201" r="3.201" transform="translate(569.709 695.312)"/><path class="a" d="M451.5,663.049c-14.319-5.018-24.184-17.741-23.119-34.281,1.042-16.177,21.192-23.384,38.73-23.384q.676,0,1.344.014c13.822.293,21.935,9.641,25.095,20.97l3.014-.685a35.232,35.232,0,0,0-7.671-14.435,27.7,27.7,0,0,0-20.372-8.951q-.7-.015-1.41-.015c-19.328,0-40.661,8.226-41.825,26.287a35.836,35.836,0,0,0,8.357,26.045,39.15,39.15,0,0,0,17.857,11.7Z" transform="translate(0 0)"/></g></svg>